<svg id="Layer_1" data-name="Layer 1" xmlns="http://www.w3.org/2000/svg" viewBox="0 0 122.88 121.83"><defs><style>.cls-1,.cls-2{fill-rule:evenodd;}.cls-2{fill:red;}.cls-3{fill:#fff;}</style></defs><title>csv</title><path class="cls-1" d="M102.42,37H81.92a8.52,8.52,0,0,1-8.85-8.7V7.53H21a.58.58,0,0,0-.41.18.45.45,0,0,0-.18.42V113.71a.7.7,0,0,0,.18.41.51.51,0,0,0,.41.18h80.84c.18,0,.17-.09.26-.18s.34-.28.34-.41V37Zm7.47,79.08a5.77,5.77,0,0,1-5.76,5.76H18.66a5.77,5.77,0,0,1-5.76-5.76V5.76a5.7,5.7,0,0,1,1.69-4.07A5.77,5.77,0,0,1,18.66,0H76.9a4.22,4.22,0,0,1,2.46.82l29.75,30.12a2.57,2.57,0,0,1,.78,2.6v82.53ZM80,27.69,79.57,9.63,100.66,31l-18.14-.81A2.4,2.4,0,0,1,80,27.69Z"/><path class="cls-2" d="M6.71,46.28H116.17A6.73,6.73,0,0,1,122.88,53v45.1a6.73,6.73,0,0,1-6.71,6.71H6.71A6.73,6.73,0,0,1,0,98.09V53a6.73,6.73,0,0,1,6.71-6.71Z"/><path class="cls-3" d="M34.45,78.4,43,81a15.53,15.53,0,0,1-2.71,6,11.75,11.75,0,0,1-4.6,3.64,17.3,17.3,0,0,1-7,1.22,20.44,20.44,0,0,1-8.41-1.49,13.39,13.39,0,0,1-5.62-5.25,17.79,17.79,0,0,1-2.37-9.62q0-7.81,4.16-12t11.79-4.2q6,0,9.37,2.41a14.1,14.1,0,0,1,5.06,7.4L34.1,71a7.26,7.26,0,0,0-1-2.09,5.73,5.73,0,0,0-2-1.71,5.83,5.83,0,0,0-2.65-.6,5.76,5.76,0,0,0-5.09,2.65q-1.34,2-1.33,6.2c0,3.49.52,5.88,1.59,7.17a5.44,5.44,0,0,0,4.47,1.94A5.41,5.41,0,0,0,32.37,83a9.59,9.59,0,0,0,2.08-4.55ZM46,80.88l9.25-.58a7,7,0,0,0,1.22,3.41,5.18,5.18,0,0,0,4.3,1.91,4.75,4.75,0,0,0,3.21-1,2.92,2.92,0,0,0,1.13-2.27,2.88,2.88,0,0,0-1.06-2.19c-.72-.65-2.37-1.25-5-1.83Q52.69,76.92,50,74.53a7.67,7.67,0,0,1-2.75-6.07,8.22,8.22,0,0,1,1.41-4.58,9.27,9.27,0,0,1,4.23-3.4,19.89,19.89,0,0,1,7.75-1.23q6,0,9.21,2.25c2.12,1.5,3.37,3.88,3.77,7.16l-9.15.54a5,5,0,0,0-1.54-3.12,4.9,4.9,0,0,0-3.23-1,4,4,0,0,0-2.57.72,2.22,2.22,0,0,0-.85,1.76,1.78,1.78,0,0,0,.69,1.35,7.84,7.84,0,0,0,3.25,1.16,40,40,0,0,1,9.14,2.79,9.51,9.51,0,0,1,4,3.49A8.84,8.84,0,0,1,74.6,81a10,10,0,0,1-1.68,5.59,10.47,10.47,0,0,1-4.69,3.88,18.87,18.87,0,0,1-7.58,1.32c-5.35,0-9.07-1-11.13-3.1A12.18,12.18,0,0,1,46,80.88Zm30.39-21.1H86.59l7.1,22.69,7-22.69h9.89L98.87,91.3H88.32L76.41,59.78Z"/></svg>