<svg width="150" height="150" viewBox="0 0 150 150" fill="none" xmlns="http://www.w3.org/2000/svg">
<g clip-path="url(#clip0_232_479)">
<path opacity="0.3" d="M120.062 75.25L110.5 74.5625L108.625 65.1875C107.098 57.3904 102.91 50.3661 96.7761 45.3157C90.6426 40.2653 82.9451 37.5025 74.9999 37.5C62.1249 37.5 50.4999 44.625 44.4999 56L41.3749 61.9375L34.6874 62.625C28.5718 63.3035 22.9229 66.219 18.8271 70.8109C14.7313 75.4029 12.4778 81.3469 12.4999 87.5C12.4999 101.313 23.6874 112.5 37.4999 112.5H118.75C129.062 112.5 137.5 104.062 137.5 93.75C137.5 84.0625 129.875 75.875 120.062 75.25ZM84.0624 81.25V100H65.8749V81.25H49.9999L74.9999 56.25L99.9999 81.25H84.0624V81.25Z" fill="black"/>
<path d="M120.938 62.75C118.838 52.1107 113.11 42.5304 104.732 35.6453C96.3533 28.7602 85.8444 24.9975 75 25C56.9375 25 41.25 35.25 33.4375 50.25C24.2515 51.2427 15.7563 55.5951 9.5843 62.4708C3.41232 69.3465 -0.00107314 78.2605 2.5308e-07 87.5C2.5308e-07 108.187 16.8125 125 37.5 125H118.75C136 125 150 111 150 93.75C150 77.25 137.188 63.875 120.938 62.75ZM118.75 112.5H37.5C23.6875 112.5 12.5 101.313 12.5 87.5C12.5 74.6875 22.0625 64 34.75 62.6875L41.4375 62L44.5625 56.0625C47.4367 50.4674 51.7992 45.7738 57.1695 42.4987C62.5398 39.2236 68.7098 37.4939 75 37.5C91.375 37.5 105.5 49.125 108.687 65.1875L110.563 74.5625L120.125 75.25C124.823 75.566 129.228 77.6499 132.451 81.0824C135.675 84.5149 137.479 89.0411 137.5 93.75C137.5 104.062 129.062 112.5 118.75 112.5ZM50 81.25H65.9375V100H84.0625V81.25H100L75 56.25L50 81.25Z" fill="black"/>
</g>
<defs>
<clipPath id="clip0_232_479">
<rect width="150" height="150" fill="white"/>
</clipPath>
</defs>
</svg>
